<svg id="Layer_1" data-name="Layer 1" xmlns="http://www.w3.org/2000/svg" xmlns:xlink="http://www.w3.org/1999/xlink" viewBox="0 0 761.01 235.55"><defs><style>.cls-1,.cls-5,.cls-8{fill:#fff;}.cls-2{fill:#f90606;}.cls-3{mask:url(#mask);}.cls-4{fill:#d81616;}.cls-5{font-size:154.9px;}.cls-5,.cls-8{font-family:MyriadPro-Regular, Myriad Pro;}.cls-6{letter-spacing:0.01em;}.cls-7{letter-spacing:-0.01em;}.cls-8{font-size:48px;letter-spacing:-0.01em;}.cls-9{letter-spacing:0.02em;}.cls-10{letter-spacing:0em;}</style><mask id="mask" x="539.35" y="34.8" width="170.2" height="155.22" maskUnits="userSpaceOnUse"><g transform="translate(-14.45 -29.06)"><g id="mask0"><path class="cls-1" d="M716,63.86h-2.66v8.08c0,2.67-1.79,4.85-4,4.85H696.08c-2.2,0-4-2.18-4-4.85V63.86H585.71v8.08c0,2.67-1.79,4.85-4,4.85h-13.3c-2.19,0-4-2.18-4-4.85V63.86h-2.66c-4.42,0-8,4.32-8,9.7V209.37c0,5.38,3.56,9.7,8,9.7h2.66V211c0-2.67,1.8-4.85,4-4.85h13.3c2.19,0,4,2.18,4,4.85v8.08H692.09V211c0-2.67,1.79-4.85,4-4.85h13.29c2.2,0,4,2.18,4,4.85v8.08H716c4.42,0,8-4.32,8-9.7V73.56C724,68.18,720.44,63.86,716,63.86ZM585.71,188.35c0,2.67-1.79,4.85-4,4.85h-13.3c-2.19,0-4-2.18-4-4.85V172.18c0-2.66,1.8-4.85,4-4.85h13.3c2.19,0,4,2.19,4,4.85Zm0-38.8c0,2.67-1.79,4.85-4,4.85h-13.3c-2.19,0-4-2.18-4-4.85V133.38c0-2.67,1.8-4.85,4-4.85h13.3c2.19,0,4,2.18,4,4.85Zm0-38.81c0,2.67-1.79,4.85-4,4.85h-13.3c-2.19,0-4-2.18-4-4.85V94.58c0-2.67,1.8-4.85,4-4.85h13.3c2.19,0,4,2.18,4,4.85Zm90.42,84.08c0,2.67-1.79,4.85-4,4.85H605.66c-2.19,0-4-2.18-4-4.85V156c0-2.66,1.8-4.85,4-4.85h66.48c2.2,0,4,2.19,4,4.85Zm0-67.91c0,2.67-1.79,4.85-4,4.85H605.66c-2.19,0-4-2.18-4-4.85V88.11c0-2.67,1.8-4.85,4-4.85h66.48c2.2,0,4,2.18,4,4.85Zm37.23,61.44c0,2.67-1.79,4.85-4,4.85H696.08c-2.2,0-4-2.18-4-4.85V172.18c0-2.66,1.79-4.85,4-4.85h13.29c2.2,0,4,2.19,4,4.85Zm0-38.8c0,2.67-1.79,4.85-4,4.85H696.08c-2.2,0-4-2.18-4-4.85V133.38c0-2.67,1.79-4.85,4-4.85h13.29c2.2,0,4,2.18,4,4.85Zm0-38.81c0,2.67-1.79,4.85-4,4.85H696.08c-2.2,0-4-2.18-4-4.85V94.58c0-2.67,1.79-4.85,4-4.85h13.29c2.2,0,4,2.18,4,4.85Z"/></g></g></mask></defs><title>Untitled-1</title><path id="A-stripe" class="cls-1" d="M139.18,196c-8.29,1.32-8.29,1.32-11.16-5.19q-20-45.18-39.92-90.37c-.66-1.5-1.41-3-2.53-5.29-2,4.31-3.6,7.83-5.16,11.38q-18.49,42-36.95,84.05c-3,6.87-3,6.87-11.33,5.36,4.76-10.69,9.45-21.27,14.19-31.82C57.21,139.87,68.19,115.62,79,91.29c1.38-3.12,2.84-4.65,6.52-4.64s5.46,1.27,7,4.68c14.76,33.3,29.73,66.51,44.63,99.75C137.76,192.57,138.36,194.09,139.18,196Z" transform="translate(-14.45 -29.06)"/><path id="stripe" class="cls-2" d="M14.45,195.94c3.67-8.27,7.26-16.43,10.91-24.57,11.9-26.54,24-53,35.6-79.65,2.22-5.08,5.17-5.64,10.17-4.34-2.41,5.51-4.7,10.81-7,16.1q-19.24,43.81-38.5,87.63C22.82,197.48,22.7,197.52,14.45,195.94Z" transform="translate(-14.45 -29.06)"/><g class="cls-3"><path class="cls-4" d="M716,63.86h-2.66v8.08c0,2.67-1.79,4.85-4,4.85H696.08c-2.2,0-4-2.18-4-4.85V63.86H585.71v8.08c0,2.67-1.79,4.85-4,4.85h-13.3c-2.19,0-4-2.18-4-4.85V63.86h-2.66c-4.42,0-8,4.32-8,9.7V209.37c0,5.38,3.56,9.7,8,9.7h2.66V211c0-2.67,1.8-4.85,4-4.85h13.3c2.19,0,4,2.18,4,4.85v8.08H692.09V211c0-2.67,1.79-4.85,4-4.85h13.29c2.2,0,4,2.18,4,4.85v8.08H716c4.42,0,8-4.32,8-9.7V73.56C724,68.18,720.44,63.86,716,63.86ZM585.71,188.35c0,2.67-1.79,4.85-4,4.85h-13.3c-2.19,0-4-2.18-4-4.85V172.18c0-2.66,1.8-4.85,4-4.85h13.3c2.19,0,4,2.19,4,4.85Zm0-38.8c0,2.67-1.79,4.85-4,4.85h-13.3c-2.19,0-4-2.18-4-4.85V133.38c0-2.67,1.8-4.85,4-4.85h13.3c2.19,0,4,2.18,4,4.85Zm0-38.81c0,2.67-1.79,4.85-4,4.85h-13.3c-2.19,0-4-2.18-4-4.85V94.58c0-2.67,1.8-4.85,4-4.85h13.3c2.19,0,4,2.18,4,4.85Zm90.42,84.08c0,2.67-1.79,4.85-4,4.85H605.66c-2.19,0-4-2.18-4-4.85V156c0-2.66,1.8-4.85,4-4.85h66.48c2.2,0,4,2.19,4,4.85Zm0-67.91c0,2.67-1.79,4.85-4,4.85H605.66c-2.19,0-4-2.18-4-4.85V88.11c0-2.67,1.8-4.85,4-4.85h66.48c2.2,0,4,2.18,4,4.85Zm37.23,61.44c0,2.67-1.79,4.85-4,4.85H696.08c-2.2,0-4-2.18-4-4.85V172.18c0-2.66,1.79-4.85,4-4.85h13.29c2.2,0,4,2.19,4,4.85Zm0-38.8c0,2.67-1.79,4.85-4,4.85H696.08c-2.2,0-4-2.18-4-4.85V133.38c0-2.67,1.79-4.85,4-4.85h13.29c2.2,0,4,2.18,4,4.85Zm0-38.81c0,2.67-1.79,4.85-4,4.85H696.08c-2.2,0-4-2.18-4-4.85V94.58c0-2.67,1.79-4.85,4-4.85h13.29c2.2,0,4,2.18,4,4.85Z" transform="translate(-14.45 -29.06)"/></g><text class="cls-5" transform="translate(131.36 167.37)"><tspan class="cls-6">M</tspan><tspan class="cls-7" x="125.46" y="0">o</tspan><tspan x="209.42" y="0">vie</tspan></text><text x="-14.45" y="-29.06"/><text class="cls-8" transform="translate(139.23 223.55)">b<tspan class="cls-9" x="26.98" y="0">y</tspan><tspan class="cls-10" x="50.73" y="0">: Sibusiso</tspan></text></svg>